<?xml version="1.0" encoding="utf-8"?>
<!-- Generator: Adobe Illustrator 16.0.0, SVG Export Plug-In . SVG Version: 6.00 Build 0)  -->
<!DOCTYPE svg PUBLIC "-//W3C//DTD SVG 1.1//EN" "http://www.w3.org/Graphics/SVG/1.1/DTD/svg11.dtd">
<svg version="1.1" id="Layer_1" xmlns="http://www.w3.org/2000/svg" xmlns:xlink="http://www.w3.org/1999/xlink" x="0px" y="0px"
	 width="10px" height="10px" viewBox="0 0 10 10" enable-background="new 0 0 10 10" xml:space="preserve">
<g>
	<path fill="#FFFFFF" d="M6.07,4.353C5.738,4.353,5.475,4.645,5.475,5S5.744,5.647,6.07,5.647c0.333,0,0.596-0.292,0.596-0.647
		S6.403,4.353,6.07,4.353z"/>
	<path fill="#FFFFFF" d="M3.942,4.353C3.609,4.353,3.347,4.645,3.347,5s0.269,0.647,0.595,0.647c0.332,0,0.595-0.292,0.595-0.647
		C4.543,4.645,4.274,4.353,3.942,4.353z"/>
	<path fill="#FFFFFF" d="M5.006,0c-2.761,0-5,2.238-5,5c0,2.761,2.238,4.999,5,4.999S10.005,7.761,10.005,5
		C10.005,2.239,7.768,0,5.006,0z M6.653,7.076c0,0-0.21-0.252-0.385-0.474c0.763-0.215,1.056-0.693,1.056-0.693
		c-0.24,0.158-0.466,0.27-0.671,0.346c-0.292,0.122-0.57,0.203-0.846,0.25c-0.56,0.104-1.072,0.076-1.51-0.007
		C3.965,6.434,3.68,6.34,3.441,6.248C3.307,6.195,3.161,6.132,3.015,6.05C2.998,6.038,2.98,6.032,2.963,6.021
		C2.951,6.014,2.946,6.009,2.939,6.003C2.834,5.944,2.776,5.904,2.776,5.904s0.28,0.466,1.021,0.688
		C3.622,6.813,3.406,7.076,3.406,7.076C2.118,7.035,1.627,6.19,1.627,6.19c0-1.878,0.84-3.4,0.84-3.4
		c0.839-0.63,1.638-0.613,1.638-0.613l0.059,0.07C3.114,2.551,2.63,3.012,2.63,3.012s0.128-0.07,0.344-0.169
		c0.624-0.274,1.12-0.35,1.324-0.367C4.333,2.47,4.362,2.464,4.396,2.464c0.356-0.046,0.759-0.058,1.179-0.012
		C6.129,2.517,6.723,2.68,7.33,3.012c0,0-0.461-0.438-1.453-0.741L5.96,2.178c0,0,0.798-0.018,1.638,0.613c0,0,0.84,1.522,0.84,3.4
		C8.438,6.19,7.941,7.035,6.653,7.076z"/>
</g>
</svg>
