<?xml version="1.0" encoding="utf-8"?>
<!-- Generator: Adobe Illustrator 16.0.0, SVG Export Plug-In . SVG Version: 6.00 Build 0)  -->
<!DOCTYPE svg PUBLIC "-//W3C//DTD SVG 1.1//EN" "http://www.w3.org/Graphics/SVG/1.1/DTD/svg11.dtd">
<svg version="1.1" id="Layer_1" xmlns="http://www.w3.org/2000/svg" xmlns:xlink="http://www.w3.org/1999/xlink" x="0px" y="0px"
	 width="266.893px" height="266.895px" viewBox="0 0 266.893 266.895" enable-background="new 0 0 266.893 266.895"
	 xml:space="preserve">
<path fill="#FFFFFF" d="M133.447,0.001C59.746,0.001,0,59.747,0,133.448c0,73.7,59.746,133.446,133.446,133.446
	c2.441,0,4.865-0.07,7.274-0.199v-99.603h-33.585v-38.896h33.585V99.513c0-33.287,20.33-51.413,50.024-51.413
	c14.225,0,26.449,1.059,30.012,1.533V84.42l-20.596,0.009c-16.147,0-19.274,7.674-19.274,18.935v24.832h38.515l-5.016,38.896
	h-33.499v91.113c50.277-19.129,86.007-67.767,86.007-124.757C266.894,59.747,207.148,0.001,133.447,0.001z"/>
</svg>
