
<svg version="1.1" id="Layer_1" xmlns="http://www.w3.org/2000/svg" xmlns:xlink="http://www.w3.org/1999/xlink" x="0px" y="0px"
	 width="210px" height="100px" viewBox="0 0 210 100" enable-background="new 0 0 210 100" xml:space="preserve">
<g>
	<defs>
		<rect id="SVGID_1_" x="1.482" y="1.431" width="207.036" height="97.139"/>
	</defs>
	<clipPath id="SVGID_2_">
		<use xlink:href="#SVGID_1_"  overflow="visible"/>
	</clipPath>
	<path id="logo-color" clip-path="url(#SVGID_2_)" fill="#3ea1b7" d="M69.858,28.629l0.017-0.018l21.388,21.39L70.658,70.605l-0.001,0.001
		c-11.38,11.38-29.831,11.38-41.212,0c-11.38-11.38-11.38-29.832,0-41.212C40.563,18.276,58.428,18.022,69.858,28.629
		 M83.612,14.875l-0.021,0.02C64.57-3.292,34.413-3.047,15.708,15.658c-18.967,18.967-18.967,49.719,0,68.686
		c18.967,18.968,49.719,18.968,68.687,0L105,63.737l13.738,13.738l13.736-13.738L83.612,14.875z"/>
	<path clip-path="url(#SVGID_2_)" fill="#FFFFFF" d="M194.293,15.657c-18.967-18.967-49.719-18.967-68.688,0l-6.867,6.869
		l0.688,0.687l13.049,13.05l6.869-6.869c11.381-11.38,29.832-11.38,41.213,0.001c11.379,11.38,11.379,29.831,0,41.211
		c-8.973,8.972-22.338,10.869-33.17,5.695l-14.225,14.224c18.859,12.493,44.516,10.434,61.131-6.181
		C213.26,65.378,213.26,34.624,194.293,15.657"/>
</g>
</svg>
