<?xml version="1.0" encoding="utf-8"?>
<!-- Generator: Adobe Illustrator 16.0.0, SVG Export Plug-In . SVG Version: 6.00 Build 0)  -->
<!DOCTYPE svg PUBLIC "-//W3C//DTD SVG 1.1//EN" "http://www.w3.org/Graphics/SVG/1.1/DTD/svg11.dtd">
<svg version="1.1" id="Layer_1" xmlns="http://www.w3.org/2000/svg" xmlns:xlink="http://www.w3.org/1999/xlink" x="0px" y="0px"
	 width="50px" height="50px" viewBox="0 0 50 50" enable-background="new 0 0 50 50" xml:space="preserve">
<path fill="#FFFFFF" d="M25,0C11.193,0,0,11.193,0,25c0,13.807,11.193,25,25,25c13.807,0,25-11.193,25-25C50,11.193,38.807,0,25,0z
	 M37.945,18.361c0.011,0.286,0.021,0.577,0.021,0.863c0,8.828-6.719,19.007-19.008,19.007c-3.772,0-7.281-1.107-10.237-3.005
	c0.525,0.064,1.055,0.096,1.595,0.096c3.127,0,6.009-1.064,8.293-2.856c-2.919-0.058-5.389-1.987-6.237-4.642
	c0.402,0.08,0.827,0.122,1.256,0.122c0.609,0,1.198-0.085,1.759-0.238c-3.058-0.609-5.357-3.312-5.357-6.549
	c0-0.027,0-0.054,0-0.085c0.9,0.503,1.929,0.8,3.025,0.837c-1.796-1.197-2.973-3.243-2.973-5.559c0-1.224,0.329-2.374,0.907-3.359
	c3.29,4.043,8.213,6.703,13.767,6.979c-0.117-0.488-0.175-0.997-0.175-1.521c0-3.688,2.995-6.682,6.683-6.682
	c1.918,0,3.656,0.816,4.875,2.114c1.521-0.302,2.951-0.858,4.239-1.622c-0.498,1.558-1.559,2.867-2.936,3.693
	c1.351-0.159,2.639-0.519,3.836-1.049C40.383,16.241,39.249,17.417,37.945,18.361z"/>
</svg>
